<mxfile host="Electron" agent="Mozilla/5.0 (Windows NT 10.0; Win64; x64) AppleWebKit/537.36 (KHTML, like Gecko) draw.io/28.0.4 Chrome/138.0.7204.97 Electron/37.2.1 Safari/537.36" version="28.0.4">
  <diagram name="Page-1" id="lbiIFqtLExvtfIJSMaYx">
    <mxGraphModel dx="1389" dy="899" grid="1" gridSize="10" guides="1" tooltips="1" connect="1" arrows="1" fold="1" page="1" pageScale="1" pageWidth="850" pageHeight="1100" math="0" shadow="0">
      <root>
        <mxCell id="0" />
        <mxCell id="1" parent="0" />
        <mxCell id="ckPpRo_Pf64BN9gtJoT0-4" value="" style="edgeStyle=orthogonalEdgeStyle;rounded=0;orthogonalLoop=1;jettySize=auto;html=1;" parent="1" source="ckPpRo_Pf64BN9gtJoT0-1" target="ckPpRo_Pf64BN9gtJoT0-2" edge="1">
          <mxGeometry relative="1" as="geometry">
            <Array as="points">
              <mxPoint x="220" y="200" />
              <mxPoint x="220" y="200" />
            </Array>
          </mxGeometry>
        </mxCell>
        <mxCell id="ckPpRo_Pf64BN9gtJoT0-1" value="&lt;font style=&quot;font-size: 18px;&quot;&gt;Ward&lt;/font&gt;" style="rounded=1;whiteSpace=wrap;html=1;fillColor=#d5e8d4;strokeColor=#82b366;gradientColor=#97d077;fontColor=#000000;" parent="1" vertex="1">
          <mxGeometry x="160" y="210" width="120" height="60" as="geometry" />
        </mxCell>
        <mxCell id="ckPpRo_Pf64BN9gtJoT0-2" value="&lt;font style=&quot;font-size: 18px;&quot;&gt;Ward_id&lt;/font&gt;" style="ellipse;whiteSpace=wrap;html=1;rounded=1;fontStyle=4" parent="1" vertex="1">
          <mxGeometry x="50" y="120" width="140" height="60" as="geometry" />
        </mxCell>
        <mxCell id="ckPpRo_Pf64BN9gtJoT0-5" value="&lt;font style=&quot;font-size: 18px;&quot;&gt;Ward_Name&lt;/font&gt;" style="ellipse;whiteSpace=wrap;html=1;rounded=1;" parent="1" vertex="1">
          <mxGeometry x="280" y="120" width="140" height="60" as="geometry" />
        </mxCell>
        <mxCell id="ckPpRo_Pf64BN9gtJoT0-6" value="" style="endArrow=classic;html=1;rounded=0;exitX=0.75;exitY=0;exitDx=0;exitDy=0;entryX=0;entryY=0.5;entryDx=0;entryDy=0;" parent="1" source="ckPpRo_Pf64BN9gtJoT0-1" target="ckPpRo_Pf64BN9gtJoT0-5" edge="1">
          <mxGeometry width="50" height="50" relative="1" as="geometry">
            <mxPoint x="195" y="231.62" as="sourcePoint" />
            <mxPoint x="320" y="150" as="targetPoint" />
            <Array as="points">
              <mxPoint x="250" y="150" />
            </Array>
          </mxGeometry>
        </mxCell>
        <mxCell id="ckPpRo_Pf64BN9gtJoT0-12" style="edgeStyle=orthogonalEdgeStyle;rounded=0;orthogonalLoop=1;jettySize=auto;html=1;entryX=1;entryY=0.5;entryDx=0;entryDy=0;" parent="1" source="ckPpRo_Pf64BN9gtJoT0-7" target="ckPpRo_Pf64BN9gtJoT0-11" edge="1">
          <mxGeometry relative="1" as="geometry" />
        </mxCell>
        <mxCell id="ckPpRo_Pf64BN9gtJoT0-16" style="edgeStyle=orthogonalEdgeStyle;rounded=0;orthogonalLoop=1;jettySize=auto;html=1;exitX=1;exitY=0.5;exitDx=0;exitDy=0;entryX=0;entryY=0.5;entryDx=0;entryDy=0;" parent="1" source="ckPpRo_Pf64BN9gtJoT0-7" target="ckPpRo_Pf64BN9gtJoT0-15" edge="1">
          <mxGeometry relative="1" as="geometry" />
        </mxCell>
        <mxCell id="ckPpRo_Pf64BN9gtJoT0-7" value="&lt;font style=&quot;font-size: 18px;&quot;&gt;Patient&lt;/font&gt;" style="rounded=1;html=1;fillColor=#d5e8d4;gradientColor=#97d077;strokeColor=#82b366;fontColor=#000000;labelBackgroundColor=none;labelBorderColor=none;" parent="1" vertex="1">
          <mxGeometry x="580" y="210" width="120" height="60" as="geometry" />
        </mxCell>
        <mxCell id="ckPpRo_Pf64BN9gtJoT0-11" value="&lt;span style=&quot;font-size: 18px;&quot;&gt;Patient_id&lt;/span&gt;" style="ellipse;whiteSpace=wrap;html=1;rounded=1;fontStyle=4" parent="1" vertex="1">
          <mxGeometry x="480" y="120" width="140" height="60" as="geometry" />
        </mxCell>
        <mxCell id="ckPpRo_Pf64BN9gtJoT0-13" value="&lt;font style=&quot;font-size: 18px;&quot;&gt;Ward_Name&lt;/font&gt;" style="ellipse;whiteSpace=wrap;html=1;rounded=1;" parent="1" vertex="1">
          <mxGeometry x="680" y="120" width="140" height="60" as="geometry" />
        </mxCell>
        <mxCell id="ckPpRo_Pf64BN9gtJoT0-14" value="" style="endArrow=classic;html=1;rounded=0;entryX=0;entryY=0.5;entryDx=0;entryDy=0;exitX=0.672;exitY=0.003;exitDx=0;exitDy=0;exitPerimeter=0;" parent="1" source="ckPpRo_Pf64BN9gtJoT0-7" target="ckPpRo_Pf64BN9gtJoT0-13" edge="1">
          <mxGeometry width="50" height="50" relative="1" as="geometry">
            <mxPoint x="660" y="200" as="sourcePoint" />
            <mxPoint x="710" y="170" as="targetPoint" />
            <Array as="points">
              <mxPoint x="660" y="150" />
            </Array>
          </mxGeometry>
        </mxCell>
        <mxCell id="ckPpRo_Pf64BN9gtJoT0-15" value="&lt;span style=&quot;font-size: 18px;&quot;&gt;Date_of_Birth&lt;/span&gt;" style="ellipse;whiteSpace=wrap;html=1;rounded=1;" parent="1" vertex="1">
          <mxGeometry x="740" y="210" width="140" height="60" as="geometry" />
        </mxCell>
        <mxCell id="ckPpRo_Pf64BN9gtJoT0-19" style="edgeStyle=orthogonalEdgeStyle;rounded=0;orthogonalLoop=1;jettySize=auto;html=1;entryX=1;entryY=0.5;entryDx=0;entryDy=0;" parent="1" source="ckPpRo_Pf64BN9gtJoT0-17" target="ckPpRo_Pf64BN9gtJoT0-1" edge="1">
          <mxGeometry relative="1" as="geometry" />
        </mxCell>
        <mxCell id="ckPpRo_Pf64BN9gtJoT0-17" value="&lt;font style=&quot;font-size: 18px;&quot;&gt;host&lt;/font&gt;" style="rhombus;whiteSpace=wrap;html=1;" parent="1" vertex="1">
          <mxGeometry x="402" y="200" width="80" height="80" as="geometry" />
        </mxCell>
        <mxCell id="ckPpRo_Pf64BN9gtJoT0-22" value="many" style="text;html=1;align=center;verticalAlign=middle;whiteSpace=wrap;rounded=0;" parent="1" vertex="1">
          <mxGeometry x="290" y="210" width="60" height="30" as="geometry" />
        </mxCell>
        <mxCell id="ckPpRo_Pf64BN9gtJoT0-23" value="one" style="text;html=1;align=center;verticalAlign=middle;whiteSpace=wrap;rounded=0;" parent="1" vertex="1">
          <mxGeometry x="510" y="210" width="60" height="30" as="geometry" />
        </mxCell>
        <mxCell id="ckPpRo_Pf64BN9gtJoT0-30" style="edgeStyle=orthogonalEdgeStyle;rounded=0;orthogonalLoop=1;jettySize=auto;html=1;entryX=1;entryY=0.5;entryDx=0;entryDy=0;" parent="1" edge="1">
          <mxGeometry relative="1" as="geometry">
            <mxPoint x="620" y="480" as="sourcePoint" />
            <mxPoint x="560" y="430" as="targetPoint" />
            <Array as="points">
              <mxPoint x="620" y="430" />
            </Array>
          </mxGeometry>
        </mxCell>
        <mxCell id="ckPpRo_Pf64BN9gtJoT0-24" value="&lt;font style=&quot;font-size: 18px;&quot;&gt;Consultant&lt;/font&gt;" style="rounded=1;whiteSpace=wrap;html=1;fillColor=#d5e8d4;gradientColor=#97d077;strokeColor=#82b366;fontColor=#000000;" parent="1" vertex="1">
          <mxGeometry x="580" y="480" width="120" height="60" as="geometry" />
        </mxCell>
        <mxCell id="ckPpRo_Pf64BN9gtJoT0-29" value="&lt;font style=&quot;font-size: 18px;&quot;&gt;Consultant_id&lt;/font&gt;" style="ellipse;whiteSpace=wrap;html=1;rounded=1;fontStyle=4" parent="1" vertex="1">
          <mxGeometry x="420" y="400" width="140" height="60" as="geometry" />
        </mxCell>
        <mxCell id="ckPpRo_Pf64BN9gtJoT0-31" value="&lt;span style=&quot;font-size: 18px;&quot;&gt;Consultant_Name&lt;/span&gt;" style="ellipse;whiteSpace=wrap;html=1;rounded=1;fontStyle=0" parent="1" vertex="1">
          <mxGeometry x="720" y="400" width="150" height="60" as="geometry" />
        </mxCell>
        <mxCell id="ckPpRo_Pf64BN9gtJoT0-32" value="" style="endArrow=classic;html=1;rounded=0;" parent="1" edge="1">
          <mxGeometry width="50" height="50" relative="1" as="geometry">
            <mxPoint x="670" y="480" as="sourcePoint" />
            <mxPoint x="720" y="430" as="targetPoint" />
            <Array as="points">
              <mxPoint x="670" y="430" />
            </Array>
          </mxGeometry>
        </mxCell>
        <mxCell id="ckPpRo_Pf64BN9gtJoT0-34" style="edgeStyle=orthogonalEdgeStyle;rounded=0;orthogonalLoop=1;jettySize=auto;html=1;entryX=0.5;entryY=0;entryDx=0;entryDy=0;" parent="1" source="ckPpRo_Pf64BN9gtJoT0-33" target="ckPpRo_Pf64BN9gtJoT0-24" edge="1">
          <mxGeometry relative="1" as="geometry" />
        </mxCell>
        <mxCell id="ckPpRo_Pf64BN9gtJoT0-33" value="&lt;font style=&quot;font-size: 18px;&quot;&gt;assigned&lt;/font&gt;" style="rhombus;whiteSpace=wrap;html=1;" parent="1" vertex="1">
          <mxGeometry x="590" y="310" width="100" height="80" as="geometry" />
        </mxCell>
        <mxCell id="ckPpRo_Pf64BN9gtJoT0-36" value="many" style="text;html=1;align=center;verticalAlign=middle;whiteSpace=wrap;rounded=0;" parent="1" vertex="1">
          <mxGeometry x="590" y="280" width="60" height="30" as="geometry" />
        </mxCell>
        <mxCell id="ckPpRo_Pf64BN9gtJoT0-37" value="many" style="text;html=1;align=center;verticalAlign=middle;whiteSpace=wrap;rounded=0;" parent="1" vertex="1">
          <mxGeometry x="580" y="400" width="60" height="30" as="geometry" />
        </mxCell>
        <mxCell id="ckPpRo_Pf64BN9gtJoT0-40" style="edgeStyle=orthogonalEdgeStyle;rounded=0;orthogonalLoop=1;jettySize=auto;html=1;entryX=1;entryY=0.5;entryDx=0;entryDy=0;" parent="1" source="ckPpRo_Pf64BN9gtJoT0-38" target="ckPpRo_Pf64BN9gtJoT0-39" edge="1">
          <mxGeometry relative="1" as="geometry">
            <Array as="points">
              <mxPoint x="200" y="430" />
            </Array>
          </mxGeometry>
        </mxCell>
        <mxCell id="ckPpRo_Pf64BN9gtJoT0-45" style="edgeStyle=orthogonalEdgeStyle;rounded=0;orthogonalLoop=1;jettySize=auto;html=1;entryX=0;entryY=0.5;entryDx=0;entryDy=0;" parent="1" source="ckPpRo_Pf64BN9gtJoT0-38" target="ckPpRo_Pf64BN9gtJoT0-44" edge="1">
          <mxGeometry relative="1" as="geometry" />
        </mxCell>
        <mxCell id="ckPpRo_Pf64BN9gtJoT0-38" value="&lt;font style=&quot;font-size: 18px;&quot;&gt;Nurse&lt;/font&gt;" style="rounded=1;whiteSpace=wrap;html=1;fillColor=#d5e8d4;gradientColor=#97d077;strokeColor=#82b366;fontColor=#000000;" parent="1" vertex="1">
          <mxGeometry x="160" y="480" width="120" height="60" as="geometry" />
        </mxCell>
        <mxCell id="ckPpRo_Pf64BN9gtJoT0-39" value="&lt;font style=&quot;font-size: 18px;&quot;&gt;Nurse_id&lt;/font&gt;" style="ellipse;whiteSpace=wrap;html=1;rounded=1;fontStyle=4" parent="1" vertex="1">
          <mxGeometry x="40" y="400" width="140" height="60" as="geometry" />
        </mxCell>
        <mxCell id="ckPpRo_Pf64BN9gtJoT0-41" value="&lt;font style=&quot;font-size: 18px;&quot;&gt;Nurse_Name&lt;/font&gt;" style="ellipse;whiteSpace=wrap;html=1;rounded=1;fontStyle=0" parent="1" vertex="1">
          <mxGeometry x="250" y="400" width="140" height="60" as="geometry" />
        </mxCell>
        <mxCell id="ckPpRo_Pf64BN9gtJoT0-42" value="" style="endArrow=classic;html=1;rounded=0;exitX=0.624;exitY=0.025;exitDx=0;exitDy=0;exitPerimeter=0;entryX=0;entryY=0.5;entryDx=0;entryDy=0;" parent="1" edge="1">
          <mxGeometry width="50" height="50" relative="1" as="geometry">
            <mxPoint x="233.8800000000001" y="479.9999999999998" as="sourcePoint" />
            <mxPoint x="250" y="428.5" as="targetPoint" />
            <Array as="points">
              <mxPoint x="234" y="428.5" />
            </Array>
          </mxGeometry>
        </mxCell>
        <mxCell id="ckPpRo_Pf64BN9gtJoT0-44" value="&lt;font style=&quot;font-size: 18px;&quot;&gt;address&lt;/font&gt;" style="ellipse;shape=doubleEllipse;margin=3;whiteSpace=wrap;html=1;align=center;" parent="1" vertex="1">
          <mxGeometry x="320" y="510" width="140" height="60" as="geometry" />
        </mxCell>
        <mxCell id="ckPpRo_Pf64BN9gtJoT0-46" value="&lt;font style=&quot;font-size: 18px;&quot;&gt;Supervisor&amp;nbsp;&lt;/font&gt;" style="rhombus;whiteSpace=wrap;html=1;" parent="1" vertex="1">
          <mxGeometry x="165" y="300" width="110" height="90" as="geometry" />
        </mxCell>
        <mxCell id="ckPpRo_Pf64BN9gtJoT0-49" value="one" style="text;html=1;align=center;verticalAlign=middle;whiteSpace=wrap;rounded=0;" parent="1" vertex="1">
          <mxGeometry x="165" y="280" width="60" height="30" as="geometry" />
        </mxCell>
        <mxCell id="ckPpRo_Pf64BN9gtJoT0-50" value="one" style="text;html=1;align=center;verticalAlign=middle;whiteSpace=wrap;rounded=0;" parent="1" vertex="1">
          <mxGeometry x="165" y="390" width="60" height="30" as="geometry" />
        </mxCell>
        <mxCell id="ckPpRo_Pf64BN9gtJoT0-53" style="edgeStyle=orthogonalEdgeStyle;rounded=0;orthogonalLoop=1;jettySize=auto;html=1;entryX=1;entryY=0.5;entryDx=0;entryDy=0;" parent="1" source="ckPpRo_Pf64BN9gtJoT0-51" target="ckPpRo_Pf64BN9gtJoT0-52" edge="1">
          <mxGeometry relative="1" as="geometry" />
        </mxCell>
        <mxCell id="ckPpRo_Pf64BN9gtJoT0-58" style="edgeStyle=orthogonalEdgeStyle;rounded=0;orthogonalLoop=1;jettySize=auto;html=1;exitX=1;exitY=0.5;exitDx=0;exitDy=0;" parent="1" source="ckPpRo_Pf64BN9gtJoT0-51" target="ckPpRo_Pf64BN9gtJoT0-56" edge="1">
          <mxGeometry relative="1" as="geometry" />
        </mxCell>
        <mxCell id="ckPpRo_Pf64BN9gtJoT0-51" value="&lt;span style=&quot;font-size: 18px;&quot;&gt;Drug&lt;/span&gt;" style="rounded=1;whiteSpace=wrap;html=1;fillColor=#d5e8d4;gradientColor=#97d077;strokeColor=#82b366;fontColor=#000000;" parent="1" vertex="1">
          <mxGeometry x="590" y="710" width="120" height="60" as="geometry" />
        </mxCell>
        <mxCell id="ckPpRo_Pf64BN9gtJoT0-52" value="&lt;b&gt;Recommended_dosage&lt;/b&gt;" style="ellipse;whiteSpace=wrap;html=1;rounded=1;fontStyle=0" parent="1" vertex="1">
          <mxGeometry x="460" y="650" width="140" height="60" as="geometry" />
        </mxCell>
        <mxCell id="ckPpRo_Pf64BN9gtJoT0-55" style="edgeStyle=orthogonalEdgeStyle;rounded=0;orthogonalLoop=1;jettySize=auto;html=1;entryX=0.006;entryY=0.641;entryDx=0;entryDy=0;entryPerimeter=0;" parent="1" target="ckPpRo_Pf64BN9gtJoT0-54" edge="1">
          <mxGeometry relative="1" as="geometry">
            <mxPoint x="700" y="678.0000000000002" as="targetPoint" />
            <mxPoint x="680" y="710" as="sourcePoint" />
            <Array as="points">
              <mxPoint x="680" y="679" />
            </Array>
          </mxGeometry>
        </mxCell>
        <mxCell id="ckPpRo_Pf64BN9gtJoT0-54" value="Drug_code" style="ellipse;whiteSpace=wrap;html=1;rounded=1;fontStyle=4;fontSize=18;" parent="1" vertex="1">
          <mxGeometry x="710" y="640" width="140" height="60" as="geometry" />
        </mxCell>
        <mxCell id="ckPpRo_Pf64BN9gtJoT0-56" value="&lt;code data-end=&quot;760&quot; data-start=&quot;748&quot;&gt;&lt;font style=&quot;font-size: 18px;&quot;&gt;Brand_Name&lt;/font&gt;&lt;/code&gt;" style="ellipse;shape=doubleEllipse;margin=3;whiteSpace=wrap;html=1;align=center;" parent="1" vertex="1">
          <mxGeometry x="760" y="750" width="140" height="60" as="geometry" />
        </mxCell>
        <mxCell id="ckPpRo_Pf64BN9gtJoT0-59" value="" style="shape=link;html=1;rounded=0;" parent="1" edge="1">
          <mxGeometry width="100" relative="1" as="geometry">
            <mxPoint x="480" y="240" as="sourcePoint" />
            <mxPoint x="580" y="240" as="targetPoint" />
          </mxGeometry>
        </mxCell>
        <mxCell id="ckPpRo_Pf64BN9gtJoT0-60" value="" style="shape=link;html=1;rounded=0;exitX=0.5;exitY=0;exitDx=0;exitDy=0;" parent="1" source="ckPpRo_Pf64BN9gtJoT0-33" edge="1">
          <mxGeometry width="100" relative="1" as="geometry">
            <mxPoint x="640" y="320" as="sourcePoint" />
            <mxPoint x="640" y="270" as="targetPoint" />
          </mxGeometry>
        </mxCell>
        <mxCell id="ckPpRo_Pf64BN9gtJoT0-61" value="" style="shape=link;html=1;rounded=0;" parent="1" edge="1">
          <mxGeometry width="100" relative="1" as="geometry">
            <mxPoint x="219.5" y="270" as="sourcePoint" />
            <mxPoint x="220" y="300" as="targetPoint" />
          </mxGeometry>
        </mxCell>
        <mxCell id="ckPpRo_Pf64BN9gtJoT0-62" value="" style="shape=link;html=1;rounded=0;entryX=0.5;entryY=0;entryDx=0;entryDy=0;exitX=0.918;exitY=-0.012;exitDx=0;exitDy=0;exitPerimeter=0;" parent="1" target="ckPpRo_Pf64BN9gtJoT0-38" edge="1" source="ckPpRo_Pf64BN9gtJoT0-50">
          <mxGeometry width="100" relative="1" as="geometry">
            <mxPoint x="220" y="410" as="sourcePoint" />
            <mxPoint x="220" y="460" as="targetPoint" />
          </mxGeometry>
        </mxCell>
        <mxCell id="-CkDbf7TtFhgHaLveu_K-2" value="&lt;font style=&quot;font-size: 16px;&quot;&gt;Examined&lt;/font&gt;" style="rhombus;whiteSpace=wrap;html=1;" vertex="1" parent="1">
          <mxGeometry x="700" y="310" width="100" height="80" as="geometry" />
        </mxCell>
        <mxCell id="-CkDbf7TtFhgHaLveu_K-3" value="" style="endArrow=none;html=1;rounded=0;exitX=0.5;exitY=0;exitDx=0;exitDy=0;" edge="1" parent="1" source="-CkDbf7TtFhgHaLveu_K-2">
          <mxGeometry width="50" height="50" relative="1" as="geometry">
            <mxPoint x="630" y="320" as="sourcePoint" />
            <mxPoint x="680" y="270" as="targetPoint" />
          </mxGeometry>
        </mxCell>
        <mxCell id="-CkDbf7TtFhgHaLveu_K-5" value="" style="endArrow=none;html=1;rounded=0;" edge="1" parent="1">
          <mxGeometry width="50" height="50" relative="1" as="geometry">
            <mxPoint x="660" y="410" as="sourcePoint" />
            <mxPoint x="750" y="390" as="targetPoint" />
          </mxGeometry>
        </mxCell>
        <mxCell id="-CkDbf7TtFhgHaLveu_K-6" value="" style="endArrow=none;html=1;rounded=0;" edge="1" parent="1">
          <mxGeometry width="50" height="50" relative="1" as="geometry">
            <mxPoint x="660" y="480" as="sourcePoint" />
            <mxPoint x="660" y="410" as="targetPoint" />
          </mxGeometry>
        </mxCell>
        <mxCell id="-CkDbf7TtFhgHaLveu_K-7" value="many" style="text;html=1;align=center;verticalAlign=middle;whiteSpace=wrap;rounded=0;" vertex="1" parent="1">
          <mxGeometry x="660" y="280" width="60" height="30" as="geometry" />
        </mxCell>
        <mxCell id="-CkDbf7TtFhgHaLveu_K-8" value="many" style="text;html=1;align=center;verticalAlign=middle;whiteSpace=wrap;rounded=0;" vertex="1" parent="1">
          <mxGeometry x="660" y="370" width="60" height="30" as="geometry" />
        </mxCell>
        <mxCell id="-CkDbf7TtFhgHaLveu_K-9" value="&lt;font style=&quot;font-size: 18px;&quot;&gt;Serve&lt;/font&gt;" style="rhombus;whiteSpace=wrap;html=1;" vertex="1" parent="1">
          <mxGeometry x="40" y="300" width="110" height="90" as="geometry" />
        </mxCell>
        <mxCell id="-CkDbf7TtFhgHaLveu_K-10" value="" style="shape=link;html=1;rounded=0;exitX=0.5;exitY=1;exitDx=0;exitDy=0;entryX=0.75;entryY=0;entryDx=0;entryDy=0;" edge="1" parent="1" source="-CkDbf7TtFhgHaLveu_K-9" target="ckPpRo_Pf64BN9gtJoT0-50">
          <mxGeometry width="100" relative="1" as="geometry">
            <mxPoint x="100" y="390" as="sourcePoint" />
            <mxPoint x="200" y="390" as="targetPoint" />
          </mxGeometry>
        </mxCell>
        <mxCell id="-CkDbf7TtFhgHaLveu_K-11" value="" style="shape=link;html=1;rounded=0;entryX=0.417;entryY=0;entryDx=0;entryDy=0;entryPerimeter=0;" edge="1" parent="1" target="ckPpRo_Pf64BN9gtJoT0-38">
          <mxGeometry width="100" relative="1" as="geometry">
            <mxPoint x="210" y="390" as="sourcePoint" />
            <mxPoint x="210" y="420" as="targetPoint" />
          </mxGeometry>
        </mxCell>
        <mxCell id="-CkDbf7TtFhgHaLveu_K-12" value="" style="endArrow=none;html=1;rounded=0;entryX=0;entryY=0.5;entryDx=0;entryDy=0;" edge="1" parent="1" target="ckPpRo_Pf64BN9gtJoT0-1">
          <mxGeometry width="50" height="50" relative="1" as="geometry">
            <mxPoint x="95" y="300" as="sourcePoint" />
            <mxPoint x="145" y="250" as="targetPoint" />
          </mxGeometry>
        </mxCell>
        <mxCell id="-CkDbf7TtFhgHaLveu_K-13" value="one" style="text;html=1;align=center;verticalAlign=middle;whiteSpace=wrap;rounded=0;" vertex="1" parent="1">
          <mxGeometry x="80" y="230" width="60" height="30" as="geometry" />
        </mxCell>
        <mxCell id="-CkDbf7TtFhgHaLveu_K-14" value="one" style="text;html=1;align=center;verticalAlign=middle;whiteSpace=wrap;rounded=0;" vertex="1" parent="1">
          <mxGeometry x="120" y="360" width="60" height="30" as="geometry" />
        </mxCell>
        <mxCell id="-CkDbf7TtFhgHaLveu_K-15" value="&lt;font style=&quot;font-size: 18px;&quot;&gt;Takes&lt;/font&gt;" style="rhombus;whiteSpace=wrap;html=1;" vertex="1" parent="1">
          <mxGeometry x="170" y="700" width="80" height="80" as="geometry" />
        </mxCell>
        <mxCell id="-CkDbf7TtFhgHaLveu_K-16" value="" style="endArrow=none;html=1;rounded=0;entryX=0.397;entryY=1.027;entryDx=0;entryDy=0;entryPerimeter=0;exitX=0.5;exitY=0;exitDx=0;exitDy=0;" edge="1" parent="1" source="-CkDbf7TtFhgHaLveu_K-15" target="ckPpRo_Pf64BN9gtJoT0-38">
          <mxGeometry width="50" height="50" relative="1" as="geometry">
            <mxPoint x="209.5" y="680" as="sourcePoint" />
            <mxPoint x="209.5" y="600" as="targetPoint" />
          </mxGeometry>
        </mxCell>
        <mxCell id="-CkDbf7TtFhgHaLveu_K-17" value="" style="endArrow=none;html=1;rounded=0;exitX=1;exitY=0.5;exitDx=0;exitDy=0;entryX=0;entryY=0.5;entryDx=0;entryDy=0;" edge="1" parent="1" source="-CkDbf7TtFhgHaLveu_K-15" target="ckPpRo_Pf64BN9gtJoT0-51">
          <mxGeometry width="50" height="50" relative="1" as="geometry">
            <mxPoint x="275" y="739.68" as="sourcePoint" />
            <mxPoint x="365" y="739.68" as="targetPoint" />
          </mxGeometry>
        </mxCell>
        <mxCell id="-CkDbf7TtFhgHaLveu_K-18" value="gives drugs" style="rhombus;whiteSpace=wrap;html=1;" vertex="1" parent="1">
          <mxGeometry x="362" y="305" width="80" height="80" as="geometry" />
        </mxCell>
        <mxCell id="-CkDbf7TtFhgHaLveu_K-19" value="" style="endArrow=none;html=1;rounded=0;entryX=0.5;entryY=1;entryDx=0;entryDy=0;" edge="1" parent="1" target="-CkDbf7TtFhgHaLveu_K-18">
          <mxGeometry width="50" height="50" relative="1" as="geometry">
            <mxPoint x="400" y="480" as="sourcePoint" />
            <mxPoint x="410" y="450" as="targetPoint" />
          </mxGeometry>
        </mxCell>
        <mxCell id="-CkDbf7TtFhgHaLveu_K-20" value="" style="endArrow=none;html=1;rounded=0;exitX=1.011;exitY=0.092;exitDx=0;exitDy=0;exitPerimeter=0;" edge="1" parent="1" source="ckPpRo_Pf64BN9gtJoT0-38">
          <mxGeometry width="50" height="50" relative="1" as="geometry">
            <mxPoint x="340" y="520" as="sourcePoint" />
            <mxPoint x="400" y="480" as="targetPoint" />
          </mxGeometry>
        </mxCell>
        <mxCell id="-CkDbf7TtFhgHaLveu_K-21" value="" style="endArrow=none;html=1;rounded=0;entryX=0;entryY=0.75;entryDx=0;entryDy=0;exitX=0.5;exitY=0;exitDx=0;exitDy=0;" edge="1" parent="1" source="-CkDbf7TtFhgHaLveu_K-18" target="ckPpRo_Pf64BN9gtJoT0-7">
          <mxGeometry width="50" height="50" relative="1" as="geometry">
            <mxPoint x="520" y="310" as="sourcePoint" />
            <mxPoint x="570" y="260" as="targetPoint" />
          </mxGeometry>
        </mxCell>
        <mxCell id="-CkDbf7TtFhgHaLveu_K-23" value="&lt;font style=&quot;font-size: 18px;&quot;&gt;Date&lt;/font&gt;" style="ellipse;whiteSpace=wrap;html=1;rounded=1;" vertex="1" parent="1">
          <mxGeometry x="460" y="300" width="108" height="50" as="geometry" />
        </mxCell>
        <mxCell id="-CkDbf7TtFhgHaLveu_K-25" value="" style="endArrow=none;html=1;rounded=0;exitX=1;exitY=0.5;exitDx=0;exitDy=0;entryX=0;entryY=0.5;entryDx=0;entryDy=0;" edge="1" parent="1" source="-CkDbf7TtFhgHaLveu_K-18" target="-CkDbf7TtFhgHaLveu_K-23">
          <mxGeometry width="50" height="50" relative="1" as="geometry">
            <mxPoint x="450" y="360" as="sourcePoint" />
            <mxPoint x="502" y="380" as="targetPoint" />
          </mxGeometry>
        </mxCell>
      </root>
    </mxGraphModel>
  </diagram>
</mxfile>
